<?xml version="1.0" encoding="UTF-8"?> <svg xmlns="http://www.w3.org/2000/svg" xmlns:xlink="http://www.w3.org/1999/xlink" width="230px" height="53px" viewBox="0 0 230 53"> <!-- Generator: Sketch 43.1 (39012) - http://www.bohemiancoding.com/sketch --> <title>cadenas-partsolutions</title> <desc>Created with Sketch.</desc> <defs></defs> <g id="logo" stroke="none" stroke-width="1" fill="none" fill-rule="evenodd"> <g id="cadenas-partsolutions" fill-rule="nonzero"> <circle id="Oval" fill="#FFFFFF" cx="26.5308254" cy="26.8117872" r="21.4333748"></circle> <g id="Page-1"> <g id="_x32_016-PARTsolutions-logo-_x28_1_x29_"> <path d="M0,0.160549624 L0,52.29904 L53.0215133,52.29904 L53.0215133,0.160549624 L0,0.160549624 Z M27.3737109,14.529741 L27.3737109,7.34514529 C37.4481998,7.74651935 45.5158184,15.814138 45.9974673,25.8484894 L39.8564441,25.8484894 L38.6924594,25.8484894 C38.7325968,26.2097261 38.7325968,26.6111002 38.7325968,26.9723368 C38.7325968,33.8358332 33.1936347,39.3747953 26.3301383,39.3747953 C19.4666419,39.3747953 13.9276799,33.8358332 13.9276799,26.9723368 C13.9276799,20.1088404 19.4666419,14.5698784 26.3301383,14.5698784 C26.6512376,14.5698784 27.0124742,14.5698784 27.3335735,14.6100158 L27.3737109,14.529741 L27.3737109,14.529741 Z M26.5308254,46.2784291 C15.7740005,46.2784291 7.06418345,37.568612 7.06418345,26.8117872 C7.06418345,16.0950998 15.6937257,7.42542011 26.3702757,7.34514529 L26.3702757,13.446031 C18.9047182,13.446031 12.8439699,19.5067793 12.8439699,26.9723368 C12.8439699,34.4378943 18.9047182,40.4986426 26.4104131,40.4986426 C33.8759706,40.4986426 39.9367189,34.4378943 39.9367189,26.9723368 L39.9367189,26.8117872 L46.0376047,26.8117872 C45.9974673,37.568612 37.2876502,46.2784291 26.5308254,46.2784291 Z" id="Shape" fill="#6BA2B9"></path> <path d="M229.545825,30.2234667 C229.545825,30.2234667 225.973596,29.5009934 223.846313,29.5009934 C220.755733,29.5009934 218.186939,30.8656652 218.186939,34.2773447 C218.186939,37.5284746 219.87271,38.2910853 223.043565,38.8128716 C225.732771,39.254383 226.05387,39.5353449 226.05387,40.1775434 C226.05387,40.9401541 225.572222,41.3415282 223.685764,41.3415282 C222.200679,41.3415282 218.548176,40.8598793 218.548176,40.8598793 L218.427763,44.1511466 C218.427763,44.1511466 221.87958,44.8736199 224.087138,44.8736199 C227.739642,44.8736199 229.987336,43.5490855 229.987336,40.0972686 C229.987336,37.1271005 228.783214,36.1236654 225.371535,35.5216043 C222.682328,35.0399554 222.120405,34.8794058 222.120405,34.1970699 C222.120405,33.3943218 222.481641,33.0330851 224.167412,33.0330851 C225.853183,33.0330851 229.505687,33.514734 229.505687,33.514734 L229.545825,30.2234667 Z M208.11245,44.5123832 L208.11245,33.514734 C208.11245,33.514734 209.396847,32.9929477 210.801656,32.9929477 C212.728252,32.9929477 213.009214,34.4378943 213.009214,36.6855891 L213.009214,44.5123832 L216.942679,44.5123832 L216.942679,36.5651768 C216.942679,32.0697874 215.899107,29.5009934 211.764954,29.5009934 C210.079183,29.5009934 208.11245,30.6649782 208.11245,30.6649782 L208.11245,29.86223 L204.219122,29.86223 L204.219122,44.5525206 L208.11245,44.5123832 L208.11245,44.5123832 Z M195.990953,41.5422152 C193.823533,41.5422152 193.221472,40.0169938 193.221472,37.1672379 C193.221472,34.3174821 193.823533,32.8323981 195.990953,32.8323981 C198.158373,32.8323981 198.760434,34.3174821 198.760434,37.1672379 C198.760434,39.9768564 198.198511,41.5422152 195.990953,41.5422152 Z M195.990953,29.460856 C190.893503,29.460856 189.247869,32.5915737 189.247869,37.1271005 C189.247869,41.6626274 190.893503,44.8736199 195.990953,44.8736199 C201.088404,44.8736199 202.734038,41.6626274 202.734038,37.1271005 C202.734038,32.5915737 201.128541,29.460856 195.990953,29.460856 Z M183.909594,27.9356346 L187.84306,27.9356346 L187.84306,23.921894 L183.909594,23.921894 L183.909594,27.9356346 Z M183.909594,44.5123832 L187.84306,44.5123832 L187.84306,29.8220926 L183.909594,29.8220926 L183.909594,44.5123832 Z M182.825884,33.1936347 L182.825884,29.86223 L179.213518,29.86223 L179.213518,25.7280772 L175.280052,25.7280772 L175.280052,29.8220926 L173.554143,29.8220926 L173.554143,33.1534973 L175.280052,33.1534973 L175.280052,39.254383 C175.280052,43.4688107 176.323624,44.8334825 179.855716,44.8334825 C180.899289,44.8334825 182.866022,44.391971 182.866022,44.391971 L182.705472,41.2612533 C182.705472,41.2612533 181.300663,41.3013908 180.457777,41.3013908 C179.213518,41.3013908 179.213518,40.6190548 179.213518,39.1741082 L179.213518,33.1534973 L182.825884,33.1936347 L182.825884,33.1936347 Z M168.577105,29.8220926 L168.577105,40.8197419 C168.577105,40.8197419 167.212433,41.3415282 165.767487,41.3415282 C163.840891,41.3415282 163.720479,40.1775434 163.720479,37.568612 L163.720479,29.8220926 L159.746876,29.8220926 L159.746876,37.5284746 C159.746876,42.5055129 160.629899,44.8736199 164.924601,44.8736199 C166.48996,44.8736199 168.577105,43.7096351 168.577105,43.7096351 L168.577105,44.5123832 L172.470433,44.5123832 L172.470433,29.8220926 L168.577105,29.8220926 Z M153.605853,44.5123832 L157.539318,44.5123832 L157.539318,23.9620314 L153.605853,23.9620314 L153.605853,44.5123832 Z M145.257272,41.5422152 C143.089852,41.5422152 142.487791,40.0169938 142.487791,37.1672379 C142.487791,34.3174821 143.089852,32.8323981 145.257272,32.8323981 C147.424692,32.8323981 148.026753,34.3174821 148.026753,37.1672379 C148.026753,39.9768564 147.46483,41.5422152 145.257272,41.5422152 Z M145.257272,29.460856 C140.159822,29.460856 138.514188,32.5915737 138.514188,37.1271005 C138.514188,41.6626274 140.159822,44.8736199 145.257272,44.8736199 C150.354723,44.8736199 152.000356,41.6626274 152.000356,37.1271005 C152.000356,32.5915737 150.39486,29.460856 145.257272,29.460856 Z M137.470615,30.2234667 C137.470615,30.2234667 133.898386,29.5009934 131.771104,29.5009934 C128.680524,29.5009934 126.11173,30.8656652 126.11173,34.2773447 C126.11173,37.5284746 127.797501,38.2910853 130.968356,38.8128716 C133.657562,39.254383 133.978661,39.5353449 133.978661,40.1775434 C133.978661,40.9401541 133.497012,41.3415282 131.610554,41.3415282 C130.12547,41.3415282 126.472966,40.8598793 126.472966,40.8598793 L126.352554,44.1511466 C126.352554,44.1511466 129.804371,44.8736199 132.011928,44.8736199 C135.664432,44.8736199 137.912127,43.5490855 137.912127,40.0972686 C137.912127,37.1271005 136.708005,36.1236654 133.296325,35.5216043 C130.607119,35.0399554 130.045195,34.8794058 130.045195,34.1970699 C130.045195,33.3943218 130.406432,33.0330851 132.092203,33.0330851 C133.777974,33.0330851 137.430478,33.514734 137.430478,33.514734 L137.470615,30.2234667 Z M113.468447,28.1363216 L118.806722,28.1363216 L118.806722,44.5123832 L122.8606,44.5123832 L122.8606,28.1363216 L128.158737,28.1363216 L128.158737,24.5640925 L113.468447,24.5640925 L113.468447,28.1363216 Z M109.213882,31.1867644 C109.213882,32.9528103 108.411134,34.3576195 106.364126,34.3576195 L102.59121,34.3576195 L102.59121,28.0159094 L106.283851,28.0159094 C108.210447,28.0159094 109.213882,29.260169 109.213882,31.1867644 Z M106.484538,37.8094364 L108.812508,44.5123832 L113.26776,44.5123832 L110.418004,36.8862761 C112.224187,35.7222913 113.348034,33.8759706 113.348034,31.146627 C113.348034,26.6111002 110.859515,24.5640925 106.283851,24.5640925 L98.5373317,24.5640925 L98.5373317,44.5525206 L102.59121,44.5525206 L102.59121,37.8495738 L106.484538,37.8495738 L106.484538,37.8094364 Z M88.2621557,27.8954972 L89.666965,27.8954972 L91.7139727,37.367925 L86.2552854,37.367925 L88.2621557,27.8954972 Z M80.6360486,44.5123832 L84.6899266,44.5123832 L85.4926747,40.9000167 L92.4765834,40.9000167 L93.2793315,44.5123832 L97.3332095,44.5123832 L92.83782,24.5239551 L85.1314381,24.5239551 L80.6360486,44.5123832 Z M71.083346,35.2406424 L71.083346,28.0159094 L74.3344759,28.0159094 C76.3814836,28.0159094 77.3447813,28.9792071 77.3447813,31.4677263 C77.3447813,33.9963829 76.3413462,35.2406424 74.3344759,35.2406424 L71.083346,35.2406424 Z M74.3746133,38.6924594 C79.0706898,38.6924594 81.4789341,36.1236654 81.4789341,31.4677263 C81.4789341,26.8117872 79.0706898,24.5239551 74.3746133,24.5239551 L67.029468,24.5239551 L67.029468,44.5123832 L71.083346,44.5123832 L71.083346,38.6924594 L74.3746133,38.6924594 Z" id="Shape_1_" fill="#333333"></path> <path d="M127.717226,8.14789341 C127.717226,8.14789341 125.549806,7.70638195 124.064722,7.70638195 C121.817027,7.70638195 120.291806,8.7098171 120.291806,10.9976492 C120.291806,12.7636951 121.255103,13.6065806 123.743623,14.3290539 C125.349119,14.7705654 125.750493,15.0916646 125.750493,15.7740005 C125.750493,16.6570235 125.228707,17.2189472 124.024584,17.2189472 C122.8606,17.2189472 120.69318,16.9379853 120.69318,16.9379853 L120.452355,18.6638938 C120.452355,18.6638938 122.619775,19.1856801 124.144997,19.1856801 C126.312417,19.1856801 127.95805,18.0618327 127.95805,15.6535883 C127.95805,13.8072677 127.235577,13.1249318 124.827333,12.362321 C122.981012,11.76026 122.5395,11.5194355 122.5395,10.8370996 C122.5395,10.1146263 123.101424,9.67311484 124.305546,9.67311484 C125.268844,9.67311484 127.556676,9.91393928 127.556676,9.91393928 L127.717226,8.14789341 Z M115.314767,9.75338965 L116.117515,9.75338965 L117.241363,15.0113898 L114.19092,15.0113898 L115.314767,9.75338965 Z M111.10034,18.984993 L113.348034,18.984993 L113.789546,16.9781227 L117.682874,16.9781227 L118.124386,18.984993 L120.372081,18.984993 L117.883561,7.90706898 L113.588859,7.90706898 L111.10034,18.984993 Z M101.547637,18.984993 L103.795332,18.984993 L103.795332,9.87380187 L103.955881,9.87380187 L106.725362,18.984993 L110.418004,18.984993 L110.418004,7.90706898 L108.170309,7.90706898 L108.170309,17.0182601 L108.009759,17.0182601 L105.320553,7.90706898 L101.547637,7.90706898 L101.547637,18.984993 Z M93.3194689,18.984993 L100.504065,18.984993 L100.504065,17.0182601 L95.5671636,17.0182601 L95.5671636,14.3691913 L99.5006294,14.3691913 L99.5006294,12.4425959 L95.5671636,12.4425959 L95.5671636,9.83366446 L100.504065,9.83366446 L100.504065,7.86693157 L93.3194689,7.86693157 L93.3194689,18.984993 Z M89.867652,13.245344 C89.867652,15.6937257 89.666965,17.0583975 87.4594076,17.0583975 L85.9743236,17.0583975 L85.9743236,9.87380187 L87.4594076,9.87380187 C89.6268275,9.87380187 89.867652,10.7969622 89.867652,13.245344 Z M87.4594076,18.984993 C91.4330108,18.984993 92.1554841,17.0182601 92.1554841,13.245344 C92.1554841,9.55270262 91.3125986,7.90706898 87.4594076,7.90706898 L83.7266289,7.90706898 L83.7266289,18.984993 L87.4594076,18.984993 Z M78.0271172,9.75338965 L78.7897279,9.75338965 L79.9135753,15.0113898 L76.8631324,15.0113898 L78.0271172,9.75338965 Z M73.8126896,18.984993 L76.0603843,18.984993 L76.5018958,16.9781227 L80.3952242,16.9781227 L80.8367356,18.984993 L83.0844304,18.984993 L80.5959112,7.90706898 L76.3413462,7.90706898 L73.8126896,18.984993 Z M73.65214,16.9781227 C73.0099415,17.0583975 71.6051323,17.2189472 70.882659,17.2189472 C68.9560635,17.2189472 68.5546894,16.4563365 68.5546894,13.4861684 C68.5546894,10.3554507 69.0764757,9.75338965 70.8023841,9.75338965 C71.5248575,9.75338965 72.8895293,9.87380187 73.65214,9.99421409 L73.7324148,8.18803082 C73.0500789,8.0274812 71.6452697,7.74651935 70.4812849,7.74651935 C67.1900176,7.74651935 66.2267199,9.27174078 66.2267199,13.4861684 C66.2267199,17.3794968 67.029468,19.2258175 70.4812849,19.2258175 C71.48472,19.2258175 72.9698041,19.0251304 73.6922774,18.8645808 L73.65214,16.9781227 Z" id="Shape_2_" fill="#6BA2B9"></path> </g> </g> </g> </g> </svg> 