<?xml version="1.0" encoding="utf-8"?>
<!-- Generator: Adobe Illustrator 25.2.0, SVG Export Plug-In . SVG Version: 6.00 Build 0)  -->
<svg version="1.1" id="Ebene_1" xmlns="http://www.w3.org/2000/svg" xmlns:xlink="http://www.w3.org/1999/xlink" x="0px" y="0px"
	 viewBox="0 0 705.4 165.9" style="enable-background:new 0 0 705.4 165.9;" xml:space="preserve">
<style type="text/css">
	.st0{fill:#67A2C0;}
	.st1{fill:#FFFFFF;}
</style>
<rect class="st0" width="165.9" height="165.9"/>
<path class="st0" d="M282.2,124.4l18.2-83.5h33.6l18,83.5h-17.6l-3.1-14.5h-28.3l-3.1,14.5H282.2z M305.4,95.4h23.2l-8.6-40h-6
	L305.4,95.4z"/>
<path class="st0" d="M360.4,124.4V40.9h28.1c3.7,0,7.5,0.2,11.1,0.8c2.9,0.4,5.8,1.2,8.6,2.3c2.4,0.9,4.5,2.3,6.4,4
	c1.8,1.6,3.3,3.5,4.5,5.6c1.3,2.3,2.3,4.8,2.8,7.4c0.7,3,1.2,6,1.5,9.1c0.3,3.2,0.5,6.9,0.5,11c0,4.3-0.1,8.1-0.4,11.4
	c-0.3,3.2-0.7,6.4-1.4,9.6c-0.5,2.8-1.5,5.5-2.7,8c-1.2,2.3-2.7,4.3-4.4,6.2c-1.8,1.9-4,3.5-6.4,4.6c-2.8,1.2-5.7,2.1-8.7,2.6
	c-3.8,0.7-7.6,1-11.4,0.9L360.4,124.4z M377.3,109.9h11.3c2.1,0,4.2-0.2,6.2-0.7c1.6-0.4,3.2-1,4.6-1.7c1.3-0.8,2.4-1.8,3.3-3.1
	c0.9-1.3,1.6-2.7,2.1-4.1c0.6-1.7,1-3.5,1.2-5.4c0.3-2.2,0.5-4.3,0.6-6.3c0.1-2.1,0.1-4.6,0.1-7.5s0-5.3-0.1-7.3
	c-0.1-1.9-0.3-3.9-0.6-5.9c-0.2-1.6-0.6-3.2-1.2-4.7c-0.6-1.2-1.3-2.4-2.1-3.4c-0.9-1.1-2-2-3.3-2.5c-1.5-0.6-3-1.1-4.6-1.3
	c-2.1-0.3-4.1-0.5-6.2-0.5h-11.3L377.3,109.9z"/>
<path class="st0" d="M274,109.9l-3.2,14.5h-14.6c-3.7,0-7.4-0.3-11-0.9c-3-0.5-5.9-1.4-8.7-2.6c-2.4-1.1-4.6-2.6-6.4-4.6
	c-1.7-1.8-3.2-3.9-4.4-6.2c-1.3-2.5-2.2-5.2-2.7-8c-0.7-3.2-1.1-6.4-1.4-9.6c-0.3-3.3-0.4-7.1-0.4-11.4c0-4.1,0.1-7.8,0.4-11
	c0.3-3.1,0.8-6.1,1.5-9.1c0.6-2.6,1.5-5.1,2.8-7.4c1.2-2.1,2.7-4,4.5-5.6c1.9-1.7,4.1-3.1,6.4-4c2.8-1.1,5.7-1.9,8.6-2.3
	c3.7-0.6,7.4-0.8,11.2-0.8h23.9l-3.2,14.5h-20.9c-2.1,0-4.2,0.1-6.2,0.5c-1.6,0.3-3.1,0.7-4.6,1.3c-1.3,0.5-2.4,1.4-3.3,2.5
	c-0.8,1.1-1.5,2.2-2.1,3.4c-0.6,1.5-1.1,3.1-1.2,4.7c-0.3,2-0.5,4-0.6,5.9c-0.1,1.9-0.1,4.4-0.1,7.2s0.1,5.5,0.1,7.5
	c0.1,2,0.3,4.2,0.6,6.4c0.2,1.8,0.6,3.6,1.2,5.4c0.5,1.5,1.3,2.8,2.1,4.1c0.8,1.3,2,2.3,3.3,3.1c1.5,0.8,3,1.4,4.6,1.7
	c2,0.5,4.1,0.7,6.2,0.7H274z"/>
<path class="st0" d="M432.5,124.4V40.9H487v14.5h-37.5v19.7h29.1v14.5h-29.1v20.3H487v14.5H432.5z"/>
<path class="st0" d="M514,55.4v69h-15.7V40.9h27l19.8,69v-69H562v83.5h-28.8L514,55.4z"/>
<path class="st0" d="M570.6,124.4l18.1-83.5h33.4l18.2,83.5h-17.6l-3.1-14.5h-28.3l-3.1,14.5H570.6z M593.8,95.4H617l-8.6-40h-6
	L593.8,95.4z"/>
<path class="st0" d="M705.4,101.2c0,7.9-2.3,13.7-6.9,17.5c-4.6,3.8-11.1,5.7-19.5,5.7h-27.4l-3.2-14.5h29.7c3.6,0,6.2-0.3,7.9-1.7
	c1.7-1.4,2.6-4.1,2.6-7.9c0-6.5-6-8.5-10.9-10.1c-15-5-20.9-7.5-20.9-7.5c-3.3-1.3-6.1-3.6-7.9-6.6c-1.7-2.9-2.6-6.8-2.6-11.9
	c0-7.9,2.3-13.7,6.9-17.5s11.1-5.7,19.5-5.7h24.3l3.2,14.5h-26.7c-3.6,0-6.2,0.3-7.9,1.7c-1.7,1.4-2.6,3.6-2.6,7.4
	c0,6.5,6.1,8.5,10.9,10.1c14.5,4.8,20.5,7.4,20.8,7.5l0,0c3.3,1.4,6.1,3.9,7.9,7C704.6,92.1,705.4,96.1,705.4,101.2z"/>
<path class="st1" d="M130.3,86h15c-1.7,34.4-31,60.9-65.4,59.3c-34.4-1.7-60.9-31-59.3-65.4c1.6-32.1,27.2-57.7,59.2-59.3v15
	C53.8,37.3,34,59.9,35.7,86c1.7,26.1,24.3,45.9,50.4,44.2C109.8,128.7,128.8,109.8,130.3,86z"/>
<path class="st1" d="M123.9,79.4c0.1,1,0.1,2,0.1,3c0,22.6-18.3,40.9-40.9,40.9S42.1,105,42.1,82.4c0-22.6,18.3-40.9,40.9-40.9
	c0,0,0,0,0,0c1,0,2,0,3,0.1v-21c31.8,1.6,57.2,27,58.7,58.7L123.9,79.4z"/>
</svg>
